<?xml version="1.0" encoding="UTF-8" standalone="no"?>
<svg
   width="290"
   height="289.99997"
   viewBox="0 0 290 289.99997"
   fill="none"
   version="1.1"
   id="svg13"
   xmlns="http://www.w3.org/2000/svg"
   xmlns:svg="http://www.w3.org/2000/svg">
  <defs
     id="defs13" />
  <circle
     style="fill:#ffffff;fill-opacity:0.85;stroke:none;stroke-width:0.695089;stroke-dasharray:none;stroke-opacity:1"
     id="path15"
     cy="144.99998"
     cx="145"
     r="145" />
  <path
     d="m 248.35843,164.21762 c 0.0351,-16.89398 0.0351,-33.8243 0,-50.71828 -0.11404,-33.28814 -22.23756,-58.05204 -54.18596,-60.7329 -30.65012,-2.61725 -56.44043,21.95581 -60.29143,47.9102 -1.14916,7.64273 -1.59654,15.4763 -1.71058,23.22808 -0.25439,18.31165 0,36.65966 -0.10527,55.01675 -0.11403,18.00268 -13.75483,32.05221 -31.01854,32.2067 -16.939145,0.15449 -30.948365,-14.39487 -31.018545,-32.28849 -0.079,-17.03938 0,-34.0515 -0.0351,-51.09996 v -9.86013 h -0.44738 c -0.59651,0 -1.14916,0 -1.74567,0 -8.00026,0 -15.63209,0 -23.60603,0 h -0.51756 l 0.0351,9.09676 c 0,17.20296 0.14913,34.36048 -0.0351,51.56344 -0.2193,19.22951 7.34234,34.43318 21.42175,46.52885 29.83429,25.60905 77.493725,11.66857 90.274845,-26.18156 3.33344,-9.90556 3.3773,-20.1201 3.5966,-30.25285 0.44739,-18.81148 0.0702,-37.62295 0.14913,-56.47987 0.0702,-18.19351 13.37763,-31.89772 30.98346,-31.94316 18.07953,-0.0727 31.45716,13.28618 31.60629,31.75232 0.14912,17.43015 0.0351,34.82395 0.0789,52.2541 v 8.63329 h 26.60612 z"
     fill="#dd4bd8"
     id="path4-0"
     style="stroke-width:0.892855" />
</svg>
